<?xml version="1.0" encoding="utf-8"?>
<!-- Generator: Adobe Illustrator 22.1.0, SVG Export Plug-In . SVG Version: 6.00 Build 0)  -->
<svg version="1.1" id="Layer_1" class="mainIcon" xmlns="http://www.w3.org/2000/svg" xmlns:xlink="http://www.w3.org/1999/xlink" x="0px" y="0px"
	 viewBox="0 0 376 468.7" style="enable-background:new 0 0 376 468.7;" xml:space="preserve">
<style type="text/css">
	.st0{display:none;fill:#FFFFFF;stroke:#000000;stroke-width:5;stroke-miterlimit:10;}
	.st1{display:none;}
	.st2{display:inline;fill:none;stroke:#000000;stroke-width:5;stroke-miterlimit:10;}
	.st3{display:inline;fill:#FFFFFF;stroke:#000000;stroke-width:5;stroke-miterlimit:10;}
	.st4{display:inline;stroke:#000000;stroke-width:5;stroke-miterlimit:10;}
	.st5{fill:#FFFFFF;stroke:#000000;stroke-width:5;stroke-miterlimit:10;}
	.st6{stroke:#000000;stroke-width:5;stroke-miterlimit:10;}
	.st7{display:none;stroke:#000000;stroke-width:2;stroke-miterlimit:10;}
</style>
<circle class="st0" cx="198.4" cy="148" r="41.3"/>
<g class="st1">
	<line class="st2" x1="190.6" y1="123.7" x2="191.6" y2="165.7"/>
	<line class="st2" x1="205.9" y1="123.7" x2="206.9" y2="165.7"/>
</g>
<g class="st1">
	<circle class="st3" cx="198.4" cy="46.3" r="41.3"/>
	<polygon class="st4" points="189.1,27.6 189.1,64.9 214.1,46.3 	"/>
</g>
<g class="st1">
	<circle class="st3" cx="206.4" cy="278.9" r="41.3"/>
	<rect x="193.6" y="265.6" class="st4" width="25.5" height="26.5"/>
</g>
<g>
	<circle class="st5" cx="322.1" cy="144.7" r="41.3"/>
	<polygon class="st6" points="338.5,128.4 338.5,160.9 320,144.7 	"/>
	<polygon class="st6" points="317.5,131.4 317.5,160.9 299,144.7 317.5,128.4 	"/>
</g>
<g class="st1">
	<circle class="st3" cx="79.5" cy="277.9" r="41.3"/>
	<polygon class="st4" points="65,294.5 63.9,262 82.9,277.6 	"/>
	<polygon class="st4" points="85,292.1 85.1,262.6 103.5,279 84.9,295.1 	"/>
</g>
<g class="st1">
	<ellipse class="st4" cx="337.5" cy="34.9" rx="5" ry="6.5"/>
	<circle class="st4" cx="305.8" cy="46.3" r="4.8"/>
	<ellipse class="st4" cx="333.5" cy="66.5" rx="4.8" ry="6.8"/>
	<line class="st2" x1="336.3" y1="35.8" x2="308" y2="47.3"/>
	<line class="st2" x1="332" y1="65.6" x2="307.2" y2="47.8"/>
	<circle class="st2" cx="326.2" cy="48" r="34.7"/>
</g>
<g class="st1">
	<path class="st4" d="M98.2,29H60.7c-2.3,0-4.2-1.9-4.2-4.2v0c0-2.3,1.9-4.2,4.2-4.2h37.5c2.3,0,4.3,1.9,4.3,4.2v0
		C102.5,27.1,100.6,29,98.2,29z"/>
	<path class="st4" d="M98.2,46.3H60.7c-2.3,0-4.2-1.9-4.2-4.2v0c0-2.3,1.9-4.2,4.2-4.2h37.5c2.3,0,4.3,1.9,4.3,4.2v0
		C102.5,44.3,100.6,46.3,98.2,46.3z"/>
	<path class="st4" d="M98.2,62.9H60.7c-2.3,0-4.2-1.9-4.2-4.2v0c0-2.3,1.9-4.2,4.2-4.2h37.5c2.3,0,4.3,1.9,4.3,4.2v0
		C102.5,61,100.6,62.9,98.2,62.9z"/>
	<circle class="st2" cx="44" cy="24.8" r="3.3"/>
	<circle class="st2" cx="44" cy="42.3" r="3.3"/>
	<circle class="st2" cx="44" cy="58.5" r="3.3"/>
</g>
<polygon class="st7" points="69,115.4 89.2,98.5 89.2,94.1 82.5,92.4 57.1,112.3 55.9,116.9 62.6,122.5 80.7,137 85.2,138.7 
	89.2,137.4 89.2,131.6 "/>
<polygon class="st7" points="76.1,185.9 55.9,202.8 55.9,207.2 62.7,208.9 88,189 89.2,184.3 82.5,178.8 64.4,164.4 59.8,162.7 
	55.8,163.9 55.8,169.8 "/>
</svg>
